# 3ds Max Wavefront OBJ Exporter v0.97b - (c)2007 guruware
# File Created: 04.04.2018 10:23:36

mtllib plinth002.mtl

#
# object Plinth002
#

v  -24.7200 -1.4567 90.8366
v  -24.7200 6.1047 90.8366
v  -24.6745 6.1047 134.0717
v  -24.6745 -1.4567 134.0717
v  -137.3839 -1.4567 42.6413
v  -137.3839 6.1047 42.6413
v  -72.8699 6.1047 42.6868
v  -72.8699 -1.4567 42.6868
v  -34.2938 -1.4567 81.2628
v  -34.2477 6.1047 81.3089
v  -137.3839 6.1047 43.2391
v  -73.0986 6.1047 43.2391
v  -25.2723 6.1047 91.0654
v  -34.5821 6.1047 81.7557
v  -25.2723 6.1047 134.0717
v  -62.6750 6.1047 52.8816
v  -62.6095 -2.1186 52.9472
v  -63.0624 6.1047 53.2754
# 18 vertices

vn 1.0000 0.0000 -0.0011
vn 1.0000 -0.0000 -0.0011
vn 0.0007 -0.0000 -1.0000
vn 0.7071 -0.0000 -0.7071
vn 0.0000 1.0000 -0.0000
vn 0.7071 0.0000 -0.7071
# 6 vertex normals

vt 0.4692 0.5736 0.0000
vt 0.3690 0.5736 0.0000
vt 0.3690 0.0005 0.0000
vt 0.4692 0.0005 0.0000
vt 0.2273 0.9916 0.0000
vt 0.1271 0.9916 0.0000
vt 0.1271 0.1365 0.0000
vt 0.2273 0.1365 0.0000
vt 0.2679 0.5204 0.0000
vt 0.3681 0.5213 0.0000
vt 0.3681 0.6998 0.0000
vt 0.2679 0.6998 0.0000
vt 0.0972 0.0013 0.0000
vt 0.0081 0.8487 0.0000
vt 0.0005 0.8510 0.0000
vt 0.0893 0.0005 0.0000
vt 0.2447 0.1298 0.0000
vt 0.2374 0.1268 0.0000
vt 0.3636 0.0005 0.0000
vt 0.3681 0.0064 0.0000
vt 0.2447 0.6998 0.0000
vt 0.2368 0.6998 0.0000
vt 0.1271 0.0014 0.0000
vt 0.2361 0.0005 0.0000
vt 0.1208 0.9995 0.0000
vt 0.1265 0.9949 0.0000
# 26 texture coords

g Plinth002
usemtl Material__47
s 4
f 1/1/1 2/2/1 3/3/1 
f 3/3/1 4/4/2 1/1/1 
s 2
f 5/5/3 6/6/3 7/7/3 
f 7/7/3 8/8/3 5/5/3 
s 8
f 9/9/4 10/10/4 2/11/4 
f 2/11/4 1/12/4 9/9/4 
s off
f 11/13/5 12/14/5 7/15/5 
f 7/15/5 6/16/5 11/13/5 
f 13/17/5 2/18/5 10/19/5 
f 10/19/5 14/20/5 13/17/5 
f 13/17/5 15/21/5 3/22/5 
f 3/22/5 2/18/5 13/17/5 
s 8
f 8/8/6 7/7/6 16/23/6 
f 16/23/6 17/24/6 8/8/6 
s off
f 16/25/5 7/15/5 12/14/5 
f 12/14/5 18/26/5 16/25/5 
# 16 faces

