# 3ds Max Wavefront OBJ Exporter v0.97b - (c)2007 guruware
# File Created: 04.04.2018 04:03:03

mtllib Glasses.mtl

#
# object Glasses
#

v  -146.7532 95.5209 -48.1813
v  -146.7532 44.2688 -48.1813
v  -146.7532 44.2688 -0.1028
v  -146.7532 95.5209 -0.1028
v  -145.8746 44.2688 -48.1813
v  -145.8746 95.5209 -48.1813
v  -145.8746 95.5209 -0.1028
v  -145.8746 44.2688 -0.1028
v  -146.7532 95.5209 -74.6072
v  -146.7532 44.2688 -74.6072
v  -146.7532 44.2688 -56.0553
v  -146.7532 95.5209 -56.0553
v  -146.7532 44.2688 26.3231
v  -146.7532 95.5209 26.3231
v  -146.7532 95.5209 7.7712
v  -146.7532 44.2688 7.7712
v  -145.8746 44.2688 -74.6072
v  -145.8746 95.5209 -74.6072
v  -145.8746 95.5209 -56.0553
v  -145.8746 44.2688 -56.0553
v  -145.8746 95.5209 26.3231
v  -145.8746 44.2688 26.3231
v  -145.8746 44.2688 7.7712
v  -145.8746 95.5209 7.7712
# 24 vertices

vn -1.0000 0.0000 0.0000
vn 1.0000 -0.0000 -0.0000
# 2 vertex normals

vt 0.0005 0.4993 0.0000
vt 0.0005 0.0005 0.0000
vt 0.4684 0.0005 0.0000
vt 0.4684 0.4993 0.0000
vt 0.0005 0.9995 0.0000
vt 0.0005 0.5007 0.0000
vt 0.4684 0.5007 0.0000
vt 0.4684 0.9995 0.0000
vt 0.4698 0.4993 0.0000
vt 0.4698 0.0005 0.0000
vt 0.6504 0.0005 0.0000
vt 0.6504 0.4993 0.0000
vt 0.8323 0.0005 0.0000
vt 0.8323 0.4993 0.0000
vt 0.6517 0.4993 0.0000
vt 0.6517 0.0005 0.0000
vt 0.6517 0.9995 0.0000
vt 0.6517 0.5007 0.0000
vt 0.8323 0.5007 0.0000
vt 0.8323 0.9995 0.0000
vt 0.6504 0.5007 0.0000
vt 0.6504 0.9995 0.0000
vt 0.4698 0.9995 0.0000
vt 0.4698 0.5007 0.0000
# 24 texture coords

g Glasses
usemtl Material__47
s 2
f 1/1/1 2/2/1 3/3/1 
f 3/3/1 4/4/1 1/1/1 
s 4
f 5/5/2 6/6/2 7/7/2 
f 7/7/2 8/8/2 5/5/2 
s 2
f 9/9/1 10/10/1 11/11/1 
f 11/11/1 12/12/1 9/9/1 
f 13/13/1 14/14/1 15/15/1 
f 15/15/1 16/16/1 13/13/1 
s 4
f 17/17/2 18/18/2 19/19/2 
f 19/19/2 20/20/2 17/17/2 
f 21/21/2 22/22/2 23/23/2 
f 23/23/2 24/24/2 21/21/2 
# 12 faces

