# 3ds Max Wavefront OBJ Exporter v0.97b - (c)2007 guruware
# File Created: 04.04.2018 03:56:42

mtllib window.mtl

#
# object Window
#

v  -147.5406 40.3318 -52.1183
v  -145.0872 40.3318 -52.1183
v  -145.0872 40.3318 3.8342
v  -147.5406 40.3318 3.8342
v  -147.5406 40.3318 -78.5442
v  -147.5406 99.4579 -78.5442
v  -145.0872 99.4579 -78.5442
v  -145.0872 40.3318 -78.5442
v  -147.5406 99.4579 3.8342
v  -145.0872 99.4579 3.8342
v  -145.0872 99.4579 -52.1183
v  -147.5406 99.4579 -52.1183
v  -147.5406 99.4579 30.2601
v  -147.5406 40.3318 30.2601
v  -145.0872 40.3318 30.2601
v  -145.0872 99.4579 30.2601
v  -147.5406 95.5209 -48.1813
v  -147.5406 95.5209 -0.1028
v  -147.5406 44.2688 -48.1813
v  -147.5406 44.2688 -0.1028
v  -145.0872 44.2688 -48.1813
v  -145.0872 44.2688 -0.1028
v  -145.0872 95.5209 -48.1813
v  -145.0872 95.5209 -0.1028
v  -147.5406 95.5209 -74.6072
v  -147.5406 95.5209 -56.0553
v  -147.5406 44.2688 -74.6072
v  -147.5406 44.2688 -56.0553
v  -147.5406 44.2688 26.3231
v  -147.5406 44.2688 7.7712
v  -147.5406 95.5209 26.3231
v  -147.5406 95.5209 7.7712
v  -145.0872 44.2688 -74.6072
v  -145.0872 44.2688 -56.0553
v  -145.0872 95.5209 -74.6072
v  -145.0872 95.5209 -56.0553
v  -145.0872 95.5209 26.3231
v  -145.0872 95.5209 7.7712
v  -145.0872 44.2688 26.3231
v  -145.0872 44.2688 7.7712
v  -146.7532 95.5209 -48.1813
v  -146.7532 95.5209 -0.1028
v  -146.7532 44.2688 -48.1813
v  -146.7532 44.2688 -0.1028
v  -145.8746 44.2688 -48.1813
v  -145.8746 44.2688 -0.1028
v  -145.8746 95.5209 -48.1813
v  -145.8746 95.5209 -0.1028
v  -146.7532 95.5209 -74.6072
v  -146.7532 95.5209 -56.0553
v  -146.7532 44.2688 -74.6072
v  -146.7532 44.2688 -56.0553
v  -146.7532 44.2688 26.3231
v  -146.7532 44.2688 7.7712
v  -146.7532 95.5209 26.3231
v  -146.7532 95.5209 7.7712
v  -145.8746 44.2688 -74.6072
v  -145.8746 44.2688 -56.0553
v  -145.8746 95.5209 -74.6072
v  -145.8746 95.5209 -56.0553
v  -145.8746 95.5209 26.3231
v  -145.8746 95.5209 7.7712
v  -145.8746 44.2688 26.3231
v  -145.8746 44.2688 7.7712
# 64 vertices

vn -0.0000 -1.0000 0.0000
vn -0.0000 0.0000 -1.0000
vn 0.0000 1.0000 -0.0000
vn 0.0000 0.0000 1.0000
vn -1.0000 0.0000 0.0000
vn 1.0000 -0.0000 -0.0000
vn -0.0000 -1.0000 -0.0000
vn 0.0000 1.0000 0.0000
vn -0.0000 -0.0000 -1.0000
vn 0.0000 -0.0000 1.0000
# 10 vertex normals

vt 0.9191 0.6261 0.0000
vt 0.9004 0.6261 0.0000
vt 0.9004 0.2012 0.0000
vt 0.9191 0.2012 0.0000
vt 0.9581 0.4505 0.0000
vt 0.9581 0.8995 0.0000
vt 0.9395 0.8995 0.0000
vt 0.9395 0.4505 0.0000
vt 0.9386 0.6261 0.0000
vt 0.9200 0.6261 0.0000
vt 0.9200 0.2012 0.0000
vt 0.9386 0.2012 0.0000
vt 0.9581 0.0005 0.0000
vt 0.9581 0.4495 0.0000
vt 0.9395 0.4495 0.0000
vt 0.9395 0.0005 0.0000
vt 0.9191 0.8268 0.0000
vt 0.9004 0.8268 0.0000
vt 0.9004 0.0005 0.0000
vt 0.9191 0.0005 0.0000
vt 0.9386 0.8268 0.0000
vt 0.9200 0.8268 0.0000
vt 0.9200 0.0005 0.0000
vt 0.9386 0.0005 0.0000
vt 0.8995 0.2012 0.0000
vt 0.8995 0.6261 0.0000
vt 0.8696 0.5962 0.0000
vt 0.8696 0.2311 0.0000
vt 0.4505 0.6261 0.0000
vt 0.4804 0.5962 0.0000
vt 0.4505 0.2012 0.0000
vt 0.4804 0.2311 0.0000
vt 0.4495 0.2012 0.0000
vt 0.4495 0.6261 0.0000
vt 0.4196 0.5962 0.0000
vt 0.4196 0.2311 0.0000
vt 0.0005 0.6261 0.0000
vt 0.0304 0.5962 0.0000
vt 0.0005 0.2012 0.0000
vt 0.0304 0.2311 0.0000
vt 0.8995 0.8268 0.0000
vt 0.8696 0.7969 0.0000
vt 0.8696 0.6560 0.0000
vt 0.4505 0.8268 0.0000
vt 0.4804 0.7969 0.0000
vt 0.4804 0.6560 0.0000
vt 0.4505 0.0005 0.0000
vt 0.4804 0.0304 0.0000
vt 0.4804 0.1713 0.0000
vt 0.8995 0.0005 0.0000
vt 0.8696 0.0304 0.0000
vt 0.8696 0.1713 0.0000
vt 0.4495 0.8268 0.0000
vt 0.4196 0.7969 0.0000
vt 0.4196 0.6560 0.0000
vt 0.0005 0.8268 0.0000
vt 0.0304 0.7969 0.0000
vt 0.0304 0.6560 0.0000
vt 0.0005 0.0005 0.0000
vt 0.0304 0.0304 0.0000
vt 0.0304 0.1713 0.0000
vt 0.4495 0.0005 0.0000
vt 0.4196 0.0304 0.0000
vt 0.4196 0.1713 0.0000
vt 0.8680 0.0396 0.0000
vt 0.5029 0.0396 0.0000
vt 0.5029 0.0336 0.0000
vt 0.8680 0.0336 0.0000
vt 0.9650 0.3907 0.0000
vt 0.9650 0.7799 0.0000
vt 0.9591 0.7799 0.0000
vt 0.9591 0.3907 0.0000
vt 0.8680 0.6679 0.0000
vt 0.5029 0.6679 0.0000
vt 0.5029 0.6619 0.0000
vt 0.8680 0.6619 0.0000
vt 0.9650 0.0005 0.0000
vt 0.9650 0.3897 0.0000
vt 0.9591 0.3897 0.0000
vt 0.9591 0.0005 0.0000
vt 0.5029 0.6684 0.0000
vt 0.8680 0.6684 0.0000
vt 0.8680 0.6744 0.0000
vt 0.5029 0.6744 0.0000
vt 0.9728 0.7799 0.0000
vt 0.9728 0.3907 0.0000
vt 0.9788 0.3907 0.0000
vt 0.9788 0.7799 0.0000
vt 0.5029 0.0400 0.0000
vt 0.8680 0.0400 0.0000
vt 0.8680 0.0460 0.0000
vt 0.5029 0.0460 0.0000
vt 0.9797 0.7799 0.0000
vt 0.9797 0.3907 0.0000
vt 0.9857 0.3907 0.0000
vt 0.9857 0.7799 0.0000
vt 0.7691 0.2591 0.0000
vt 0.6283 0.2591 0.0000
vt 0.6283 0.2531 0.0000
vt 0.7691 0.2531 0.0000
vt 0.9926 0.3907 0.0000
vt 0.9926 0.7799 0.0000
vt 0.9866 0.7799 0.0000
vt 0.9866 0.3907 0.0000
vt 0.7691 0.2527 0.0000
vt 0.6283 0.2527 0.0000
vt 0.6283 0.2467 0.0000
vt 0.7691 0.2467 0.0000
vt 0.9995 0.0005 0.0000
vt 0.9995 0.3897 0.0000
vt 0.9935 0.3897 0.0000
vt 0.9935 0.0005 0.0000
vt 0.8616 0.2320 0.0000
vt 0.8616 0.3729 0.0000
vt 0.8556 0.3729 0.0000
vt 0.8556 0.2320 0.0000
vt 0.9926 0.0005 0.0000
vt 0.9926 0.3897 0.0000
vt 0.9866 0.3897 0.0000
vt 0.9866 0.0005 0.0000
vt 0.7691 0.2463 0.0000
vt 0.6283 0.2463 0.0000
vt 0.6283 0.2403 0.0000
vt 0.7691 0.2403 0.0000
vt 0.9857 0.0005 0.0000
vt 0.9857 0.3897 0.0000
vt 0.9797 0.3897 0.0000
vt 0.9797 0.0005 0.0000
vt 0.7271 0.6748 0.0000
vt 0.8680 0.6748 0.0000
vt 0.8680 0.6808 0.0000
vt 0.7271 0.6808 0.0000
vt 0.9728 0.3897 0.0000
vt 0.9728 0.0005 0.0000
vt 0.9788 0.0005 0.0000
vt 0.9788 0.3897 0.0000
vt 0.8621 0.3729 0.0000
vt 0.8621 0.2320 0.0000
vt 0.8680 0.2320 0.0000
vt 0.8680 0.3729 0.0000
vt 0.9659 0.7799 0.0000
vt 0.9659 0.3907 0.0000
vt 0.9719 0.3907 0.0000
vt 0.9719 0.7799 0.0000
vt 0.5634 0.3729 0.0000
vt 0.5634 0.2320 0.0000
vt 0.5694 0.2320 0.0000
vt 0.5694 0.3729 0.0000
vt 0.9659 0.3897 0.0000
vt 0.9659 0.0005 0.0000
vt 0.9719 0.0005 0.0000
vt 0.9719 0.3897 0.0000
vt 0.5699 0.3729 0.0000
vt 0.5699 0.2320 0.0000
vt 0.5759 0.2320 0.0000
vt 0.5759 0.3729 0.0000
vt 0.9935 0.7799 0.0000
vt 0.9935 0.3907 0.0000
vt 0.9995 0.3907 0.0000
vt 0.9995 0.7799 0.0000
# 160 texture coords

g Window
usemtl Material__47
s 8
f 1/1/1 2/2/1 3/3/1 
f 3/3/1 4/4/1 1/1/1 
s 16
f 5/5/2 6/6/2 7/7/2 
f 7/7/2 8/8/2 5/5/2 
s 32
f 9/9/3 10/10/3 11/11/3 
f 11/11/3 12/12/3 9/9/3 
s 64
f 13/13/4 14/14/4 15/15/4 
f 15/15/4 16/16/4 13/13/4 
s 8
f 5/17/1 8/18/1 2/2/1 
f 2/2/1 1/1/1 5/17/1 
f 15/19/1 14/20/1 4/4/1 
f 4/4/1 3/3/1 15/19/1 
s 32
f 13/21/3 16/22/3 10/10/3 
f 10/10/3 9/9/3 13/21/3 
f 7/23/3 6/24/3 12/12/3 
f 12/12/3 11/11/3 7/23/3 
s off
f 9/25/5 12/26/5 17/27/5 
f 17/27/5 18/28/5 9/25/5 
f 12/26/5 1/29/5 19/30/5 
f 19/30/5 17/27/5 12/26/5 
f 1/29/5 4/31/5 20/32/5 
f 20/32/5 19/30/5 1/29/5 
f 4/31/5 9/25/5 18/28/5 
f 18/28/5 20/32/5 4/31/5 
f 3/33/6 2/34/6 21/35/6 
f 21/35/6 22/36/6 3/33/6 
f 2/34/6 11/37/6 23/38/6 
f 23/38/6 21/35/6 2/34/6 
f 11/37/6 10/39/6 24/40/6 
f 24/40/6 23/38/6 11/37/6 
f 10/39/6 3/33/6 22/36/6 
f 22/36/6 24/40/6 10/39/6 
f 12/26/5 6/41/5 25/42/5 
f 25/42/5 26/43/5 12/26/5 
f 6/41/5 5/44/5 27/45/5 
f 27/45/5 25/42/5 6/41/5 
f 5/44/5 1/29/5 28/46/5 
f 28/46/5 27/45/5 5/44/5 
f 1/29/5 12/26/5 26/43/5 
f 26/43/5 28/46/5 1/29/5 
f 4/31/5 14/47/5 29/48/5 
f 29/48/5 30/49/5 4/31/5 
f 14/47/5 13/50/5 31/51/5 
f 31/51/5 29/48/5 14/47/5 
f 13/50/5 9/25/5 32/52/5 
f 32/52/5 31/51/5 13/50/5 
f 9/25/5 4/31/5 30/49/5 
f 30/49/5 32/52/5 9/25/5 
f 2/34/6 8/53/6 33/54/6 
f 33/54/6 34/55/6 2/34/6 
f 8/53/6 7/56/6 35/57/6 
f 35/57/6 33/54/6 8/53/6 
f 7/56/6 11/37/6 36/58/6 
f 36/58/6 35/57/6 7/56/6 
f 11/37/6 2/34/6 34/55/6 
f 34/55/6 36/58/6 11/37/6 
f 10/39/6 16/59/6 37/60/6 
f 37/60/6 38/61/6 10/39/6 
f 16/59/6 15/62/6 39/63/6 
f 39/63/6 37/60/6 16/59/6 
f 15/62/6 3/33/6 40/64/6 
f 40/64/6 39/63/6 15/62/6 
f 3/33/6 10/39/6 38/61/6 
f 38/61/6 40/64/6 3/33/6 
f 18/65/7 17/66/7 41/67/7 
f 41/67/7 42/68/7 18/65/7 
f 17/69/4 19/70/4 43/71/4 
f 43/71/4 41/72/4 17/69/4 
f 19/73/8 20/74/8 44/75/8 
f 44/75/8 43/76/8 19/73/8 
f 20/77/9 18/78/9 42/79/9 
f 42/79/9 44/80/9 20/77/9 
f 22/81/8 21/82/8 45/83/8 
f 45/83/8 46/84/8 22/81/8 
f 21/85/10 23/86/10 47/87/10 
f 47/87/10 45/88/10 21/85/10 
f 23/89/7 24/90/7 48/91/7 
f 48/91/7 47/92/7 23/89/7 
f 24/93/2 22/94/2 46/95/2 
f 46/95/2 48/96/2 24/93/2 
f 26/97/1 25/98/1 49/99/1 
f 49/99/1 50/100/1 26/97/1 
f 25/101/4 27/102/4 51/103/4 
f 51/103/4 49/104/4 25/101/4 
f 27/105/3 28/106/3 52/107/3 
f 52/107/3 51/108/3 27/105/3 
f 28/109/9 26/110/9 50/111/9 
f 50/111/9 52/112/9 28/109/9 
f 30/113/3 29/114/3 53/115/3 
f 53/115/3 54/116/3 30/113/3 
f 29/117/2 31/118/2 55/119/2 
f 55/119/2 53/120/2 29/117/2 
f 31/121/1 32/122/1 56/123/1 
f 56/123/1 55/124/1 31/121/1 
f 32/125/4 30/126/4 54/127/4 
f 54/127/4 56/128/4 32/125/4 
f 34/129/3 33/130/3 57/131/3 
f 57/131/3 58/132/3 34/129/3 
f 33/133/4 35/134/4 59/135/4 
f 59/135/4 57/136/4 33/133/4 
f 35/137/1 36/138/1 60/139/1 
f 60/139/1 59/140/1 35/137/1 
f 36/141/2 34/142/2 58/143/2 
f 58/143/2 60/144/2 36/141/2 
f 38/145/1 37/146/1 61/147/1 
f 61/147/1 62/148/1 38/145/1 
f 37/149/2 39/150/2 63/151/2 
f 63/151/2 61/152/2 37/149/2 
f 39/153/3 40/154/3 64/155/3 
f 64/155/3 63/156/3 39/153/3 
f 40/157/10 38/158/10 62/159/10 
f 62/159/10 64/160/10 40/157/10 
# 112 faces

