# 3ds Max Wavefront OBJ Exporter v0.97b - (c)2007 guruware
# File Created: 04.04.2018 14:02:35

mtllib RoofCorridor.mtl

#
# object RoofCorridor
#

v  149.5505 122.0472 -360.7177
v  149.5505 122.0472 -486.4205
v  287.3457 122.0472 -486.4205
v  149.5505 122.0472 312.2841
v  287.3457 122.0472 174.9360
v  287.3457 122.0472 312.2841
v  10.5950 122.0472 -360.7177
v  10.5950 122.0472 -486.4205
v  439.4970 122.0472 174.9360
v  439.4970 122.0472 312.2841
# 10 vertices

vn 0.0000 -1.0000 -0.0000
# 1 vertex normals

vt 0.1657 0.5444 0.0000
vt 0.0128 0.5423 0.0000
vt 0.0150 0.3747 0.0000
vt 0.9844 0.5553 0.0000
vt 0.8196 0.3854 0.0000
vt 0.9866 0.3877 0.0000
vt 0.1635 0.7134 0.0000
vt 0.0105 0.7114 0.0000
vt 0.8220 0.2003 0.0000
vt 0.9891 0.2026 0.0000
# 10 texture coords

g RoofCorridor
usemtl wire_229166215
s 4
f 1/1/1 2/2/1 3/3/1 
f 4/4/1 1/1/1 3/3/1 
f 4/4/1 3/3/1 5/5/1 
f 4/4/1 5/5/1 6/6/1 
s off
f 2/2/1 1/1/1 7/7/1 
f 7/7/1 8/8/1 2/2/1 
f 6/6/1 5/5/1 9/9/1 
f 9/9/1 10/10/1 6/6/1 
# 8 faces

