# 3ds Max Wavefront OBJ Exporter v0.97b - (c)2007 guruware
# File Created: 04.04.2018 10:33:00

mtllib Elec.mtl

#
# object Elec
#

v  -137.5676 69.4806 -88.8668
v  -137.5676 70.9147 -88.8668
v  -137.5676 70.9147 -94.8354
v  -137.5676 64.3777 -88.8668
v  -137.5676 62.9436 -88.8668
v  -137.5676 62.9436 -94.8354
v  100.1140 62.9436 -88.8668
v  100.1140 62.9436 -94.8354
v  100.1140 70.9146 -94.8354
v  100.1140 70.9146 -88.8668
v  100.1140 69.4806 -88.8668
v  100.1140 64.3777 -88.8668
v  -137.5676 63.3422 -88.1146
v  100.1140 63.3422 -88.1146
v  100.1140 63.9791 -88.1146
v  -137.5676 63.9791 -88.1146
v  100.1140 70.5161 -88.1146
v  -137.5676 70.5161 -88.1146
v  -137.5676 69.8792 -88.1146
v  100.1140 69.8791 -88.1146
v  -137.5676 62.9436 -88.5132
v  -137.5676 63.0433 -88.2142
v  -137.5676 64.2780 -88.2142
v  -137.5676 64.3777 -88.5132
v  100.1140 62.9436 -88.5132
v  100.1140 64.3777 -88.5132
v  100.1140 64.2780 -88.2142
v  100.1140 63.0432 -88.2142
v  100.1140 70.9147 -88.5132
v  100.1140 70.8150 -88.2142
v  100.1140 69.5802 -88.2142
v  100.1140 69.4806 -88.5132
v  -137.5676 70.9147 -88.5132
v  -137.5676 69.4806 -88.5132
v  -137.5676 69.5802 -88.2142
v  -137.5676 70.8150 -88.2142
# 36 vertices

vn -1.0000 0.0000 0.0000
vn 1.0000 -0.0000 -0.0000
vn -0.0000 -1.0000 0.0000
vn -0.0000 -0.0000 -1.0000
vn 0.0000 1.0000 -0.0000
vn 0.0000 -0.0000 1.0000
vn 0.0000 -0.1602 0.9871
vn 0.0000 0.1602 0.9871
vn -0.0000 -0.9871 0.1602
vn 0.0000 0.9871 0.1602
vn 0.0000 -0.3162 0.9487
vn 0.0000 0.3162 0.9487
vn -0.0000 -0.9487 0.3162
vn 0.0000 0.9487 0.3162
# 14 vertex normals

vt 0.1564 0.0620 0.0000
vt 0.1564 0.0680 0.0000
vt 0.1313 0.0680 0.0000
vt 0.1564 0.0406 0.0000
vt 0.1564 0.0345 0.0000
vt 0.1313 0.0345 0.0000
vt 0.1564 0.0340 0.0000
vt 0.1313 0.0340 0.0000
vt 0.1313 0.0005 0.0000
vt 0.1564 0.0005 0.0000
vt 0.1564 0.0065 0.0000
vt 0.1564 0.0280 0.0000
vt 0.0880 0.9995 0.0000
vt 0.0629 0.9995 0.0000
vt 0.0629 0.0005 0.0000
vt 0.0880 0.0005 0.0000
vt 0.0340 0.9995 0.0000
vt 0.0005 0.9995 0.0000
vt 0.0005 0.0005 0.0000
vt 0.0340 0.0005 0.0000
vt 0.0624 0.9995 0.0000
vt 0.0373 0.9995 0.0000
vt 0.0373 0.0005 0.0000
vt 0.0624 0.0005 0.0000
vt 0.0913 0.9995 0.0000
vt 0.0913 0.0005 0.0000
vt 0.1127 0.0005 0.0000
vt 0.1127 0.9995 0.0000
vt 0.1145 0.9995 0.0000
vt 0.1145 0.0005 0.0000
vt 0.1172 0.0005 0.0000
vt 0.1172 0.9995 0.0000
vt 0.1229 0.0005 0.0000
vt 0.1229 0.9995 0.0000
vt 0.1202 0.9995 0.0000
vt 0.1202 0.0005 0.0000
vt 0.1578 0.0345 0.0000
vt 0.1591 0.0350 0.0000
vt 0.1595 0.0362 0.0000
vt 0.1595 0.0389 0.0000
vt 0.1591 0.0401 0.0000
vt 0.1578 0.0406 0.0000
vt 0.0895 0.0005 0.0000
vt 0.0895 0.9995 0.0000
vt 0.1578 0.0280 0.0000
vt 0.1591 0.0284 0.0000
vt 0.1595 0.0297 0.0000
vt 0.1595 0.0323 0.0000
vt 0.1591 0.0336 0.0000
vt 0.1578 0.0340 0.0000
vt 0.1275 0.0005 0.0000
vt 0.1275 0.9995 0.0000
vt 0.1260 0.9995 0.0000
vt 0.1260 0.0005 0.0000
vt 0.1578 0.0005 0.0000
vt 0.1591 0.0009 0.0000
vt 0.1595 0.0022 0.0000
vt 0.1595 0.0049 0.0000
vt 0.1591 0.0061 0.0000
vt 0.1578 0.0065 0.0000
vt 0.0358 0.9995 0.0000
vt 0.0358 0.0005 0.0000
vt 0.1578 0.0620 0.0000
vt 0.1591 0.0624 0.0000
vt 0.1595 0.0637 0.0000
vt 0.1595 0.0664 0.0000
vt 0.1591 0.0676 0.0000
vt 0.1578 0.0680 0.0000
vt 0.1280 0.9995 0.0000
vt 0.1280 0.0005 0.0000
vt 0.1295 0.0005 0.0000
vt 0.1295 0.9995 0.0000
vt 0.1133 0.0005 0.0000
vt 0.1133 0.9995 0.0000
vt 0.1184 0.9995 0.0000
vt 0.1184 0.0005 0.0000
vt 0.1242 0.9995 0.0000
vt 0.1242 0.0005 0.0000
vt 0.1190 0.0005 0.0000
vt 0.1190 0.9995 0.0000
vt 0.0907 0.0005 0.0000
vt 0.0907 0.9995 0.0000
vt 0.1247 0.9995 0.0000
vt 0.1247 0.0005 0.0000
vt 0.0345 0.9995 0.0000
vt 0.0345 0.0005 0.0000
vt 0.1307 0.0005 0.0000
vt 0.1307 0.9995 0.0000
# 88 texture coords

g Elec
usemtl Material__47
s 1
f 1/1/1 2/2/1 3/3/1 
f 4/4/1 1/1/1 3/3/1 
f 5/5/1 4/4/1 3/3/1 
f 5/5/1 3/3/1 6/6/1 
f 7/7/2 8/8/2 9/9/2 
f 9/9/2 10/10/2 11/11/2 
f 9/9/2 11/11/2 12/12/2 
f 7/7/2 9/9/2 12/12/2 
s 2
f 5/13/3 6/14/3 8/15/3 
f 8/15/3 7/16/3 5/13/3 
s 4
f 6/17/4 3/18/4 9/19/4 
f 9/19/4 8/20/4 6/17/4 
s 2
f 3/21/5 2/22/5 10/23/5 
f 10/23/5 9/24/5 3/21/5 
f 4/25/6 12/26/6 11/27/6 
f 11/27/6 1/28/6 4/25/6 
s 4
f 13/29/7 14/30/7 15/31/8 
f 15/31/8 16/32/8 13/29/7 
f 17/33/8 18/34/8 19/35/7 
f 19/35/7 20/36/7 17/33/8 
s 1
f 5/5/1 21/37/1 22/38/1 
f 5/5/1 22/38/1 13/39/1 
f 4/4/1 5/5/1 13/39/1 
f 13/39/1 16/40/1 23/41/1 
f 13/39/1 23/41/1 24/42/1 
f 4/4/1 13/39/1 24/42/1 
s 2
f 5/13/3 7/16/3 25/43/9 
f 25/43/9 21/44/9 5/13/3 
s 1
f 12/12/2 26/45/2 27/46/2 
f 12/12/2 27/46/2 15/47/2 
f 7/7/2 12/12/2 15/47/2 
f 15/47/2 14/48/2 28/49/2 
f 15/47/2 28/49/2 25/50/2 
f 7/7/2 15/47/2 25/50/2 
s 8
f 12/51/5 4/52/5 24/53/10 
f 24/53/10 26/54/10 12/51/5 
s 1
f 10/10/2 29/55/2 30/56/2 
f 10/10/2 30/56/2 17/57/2 
f 11/11/2 10/10/2 17/57/2 
f 17/57/2 20/58/2 31/59/2 
f 17/57/2 31/59/2 32/60/2 
f 11/11/2 17/57/2 32/60/2 
s 2
f 10/23/5 2/22/5 33/61/10 
f 33/61/10 29/62/10 10/23/5 
s 1
f 1/1/1 34/63/1 35/64/1 
f 1/1/1 35/64/1 19/65/1 
f 2/2/1 1/1/1 19/65/1 
f 19/65/1 18/66/1 36/67/1 
f 19/65/1 36/67/1 33/68/1 
f 2/2/1 19/65/1 33/68/1 
s 8
f 1/69/3 11/70/3 32/71/9 
f 32/71/9 34/72/9 1/69/3 
s 4
f 28/73/11 14/30/7 13/29/7 
f 13/29/7 22/74/11 28/73/11 
f 23/75/12 16/32/8 15/31/8 
f 15/31/8 27/76/12 23/75/12 
f 36/77/12 18/34/8 17/33/8 
f 17/33/8 30/78/12 36/77/12 
f 31/79/11 20/36/7 19/35/7 
f 19/35/7 35/80/11 31/79/11 
s 2
f 25/43/9 28/81/13 22/82/13 
f 22/82/13 21/44/9 25/43/9 
s 8
f 24/53/10 23/83/14 27/84/14 
f 27/84/14 26/54/10 24/53/10 
s 2
f 33/61/10 36/85/14 30/86/14 
f 30/86/14 29/62/10 33/61/10 
s 8
f 32/71/9 31/87/13 35/88/13 
f 35/88/13 34/72/9 32/71/9 
# 68 faces

