# 3ds Max Wavefront OBJ Exporter v0.97b - (c)2007 guruware
# File Created: 04.04.2018 10:13:09

mtllib Plinth001.mtl

#
# object Plinth
#

v  -135.2215 6.1153 130.0788
v  98.5671 6.1153 130.0788
v  98.5671 0.0000 130.0788
v  -135.2215 0.0000 130.0788
v  98.5671 6.1153 -92.2818
v  -135.2215 6.1153 -92.2818
v  -135.2215 0.0000 -92.2818
v  98.5671 0.0000 -92.2818
v  -135.6883 6.1153 130.6038
v  99.0339 6.1153 130.6038
v  99.0339 6.1153 -92.8068
v  -135.6883 6.1153 -92.8068
v  98.5671 6.1153 61.3117
v  98.5671 0.0000 61.3117
v  99.0339 6.1153 61.3115
v  99.0339 6.1153 6.4617
v  98.5671 6.1153 6.4619
v  98.5671 0.0000 6.4609
# 18 vertices

vn 0.0000 0.0000 -1.0000
vn 0.0000 0.0000 1.0000
vn 1.0000 0.0000 0.0000
vn 0.0000 1.0000 -0.0000
vn -0.0000 1.0000 -0.0000
vn -1.0000 0.0000 -0.0000
vn 0.0000 1.0000 0.0000
vn -1.0000 0.0000 0.0000
# 8 vertex normals

vt 0.8691 0.9955 0.0000
vt 0.8691 0.0005 0.0000
vt 0.8903 0.0005 0.0000
vt 0.8903 0.9955 0.0000
vt 0.8470 0.9955 0.0000
vt 0.8470 0.0005 0.0000
vt 0.8682 0.0005 0.0000
vt 0.8682 0.9955 0.0000
vt 0.8080 0.8621 0.0000
vt 0.8080 0.0205 0.0000
vt 0.8291 0.0205 0.0000
vt 0.8291 0.8621 0.0000
vt 0.8460 0.0005 0.0000
vt 0.8460 0.9995 0.0000
vt 0.8441 0.9975 0.0000
vt 0.8441 0.0025 0.0000
vt 0.0005 0.9995 0.0000
vt 0.0005 0.0005 0.0000
vt 0.0025 0.0025 0.0000
vt 0.0025 0.9975 0.0000
vt 0.5472 0.0633 0.0000
vt 0.5472 0.0421 0.0000
vt 0.8075 0.0421 0.0000
vt 0.8075 0.0633 0.0000
vt 0.5838 0.9995 0.0000
vt 0.5838 0.9975 0.0000
vt 0.3762 0.9995 0.0000
vt 0.3762 0.9975 0.0000
vt 0.8075 0.0205 0.0000
vt 0.8075 0.0416 0.0000
vt 0.4338 0.0416 0.0000
vt 0.4338 0.0205 0.0000
# 32 texture coords

g Plinth
usemtl Material__47
s 8
f 1/1/1 2/2/1 3/3/1 
f 3/3/1 4/4/1 1/1/1 
s 32
f 5/5/2 6/6/2 7/7/2 
f 7/7/2 8/8/2 5/5/2 
s 64
f 6/9/3 1/10/3 4/11/3 
f 4/11/3 7/12/3 6/9/3 
s off
f 9/13/4 10/14/4 2/15/4 
f 2/15/4 1/16/4 9/13/4 
f 11/17/4 12/18/4 6/19/4 
f 6/19/5 5/20/5 11/17/5 
f 12/18/4 9/13/4 1/16/4 
f 1/16/4 6/19/4 12/18/4 
s 16
f 3/21/6 2/22/6 13/23/6 
f 13/23/6 14/24/6 3/21/6 
s off
f 2/15/4 10/14/4 15/25/4 
f 15/25/7 13/26/7 2/15/7 
f 16/27/4 11/17/4 5/20/4 
f 5/20/4 17/28/4 16/27/4 
s 16
f 5/29/8 8/30/8 18/31/8 
f 18/31/8 17/32/6 5/29/8 
# 20 faces

