# 3ds Max Wavefront OBJ Exporter v0.97b - (c)2007 guruware
# File Created: 04.04.2018 06:32:38

mtllib Placard.mtl

#
# object Placard
#

v  98.3065 0.0000 104.7213
v  48.1666 0.0000 104.7213
v  48.1666 0.0000 102.6867
v  98.3065 0.0000 102.6867
v  48.1666 91.9231 104.7213
v  98.3065 91.9231 104.7213
v  98.3065 91.9231 102.6867
v  48.1666 91.9231 102.6867
v  61.5308 78.5589 103.9402
v  84.9422 78.5589 103.9402
v  84.9422 13.3642 103.9402
v  61.5308 13.3642 103.9402
v  98.2647 91.8813 104.7631
v  48.2084 91.8813 104.7631
v  48.2084 0.0418 104.7631
v  98.2647 0.0418 104.7631
v  61.0877 12.9211 102.6867
v  85.3854 12.9211 102.6867
v  61.0877 79.0021 102.6867
v  85.3854 79.0021 102.6867
v  84.9422 13.3642 103.3135
v  61.5308 13.3642 103.3135
v  61.5308 78.5589 103.3135
v  84.9422 78.5589 103.3135
v  48.1666 0.0000 129.8330
v  48.1666 0.0000 104.8049
v  98.3065 0.0000 104.8049
v  98.3065 0.0000 129.8330
v  48.1666 91.9231 129.8330
v  98.3065 91.9231 129.8330
v  98.3065 91.9231 104.8049
v  48.1666 91.9231 104.8049
v  55.5092 44.8637 102.8174
v  55.5092 44.8637 100.2645
v  55.3973 45.2816 100.2645
v  55.3973 45.2816 102.8174
v  55.0914 45.5875 100.2645
v  55.0914 45.5875 102.8174
v  54.6735 45.6994 100.2645
v  54.6735 45.6994 102.8174
v  54.2557 45.5875 102.8174
v  54.2557 45.5875 100.2645
v  53.9498 45.2816 102.8174
v  53.9498 45.2816 100.2645
v  53.8379 44.8637 102.8174
v  53.8379 44.8637 100.2645
v  55.0914 44.1400 102.8174
v  54.6735 44.0281 102.8174
v  54.6735 44.0281 102.2830
v  55.0914 44.1400 102.2530
v  54.2557 44.1400 102.8174
v  54.2557 44.1400 102.2530
v  55.3973 44.4459 102.8174
v  55.3301 44.3787 102.1890
v  55.3973 44.4459 102.1218
v  53.9498 44.4459 100.2645
v  54.2557 44.1400 100.2645
v  54.2557 44.1400 100.6777
v  54.0170 44.3787 100.7416
v  53.9498 44.4459 100.8088
v  54.6735 44.0281 100.6477
v  54.6735 44.0281 100.2645
v  55.0914 44.1400 100.2645
v  55.0914 44.1400 100.6777
v  55.4612 44.6846 101.0475
v  55.4912 44.7966 101.4653
v  53.8559 44.7966 101.4653
v  53.8859 44.6846 101.0475
v  55.4612 44.6846 101.8831
v  53.8859 44.6846 101.8831
v  54.0170 44.3787 102.1890
v  55.3973 44.4459 100.2645
v  53.9498 44.4459 102.8174
v  53.9498 44.4459 102.1218
v  55.3973 44.4459 100.8088
v  55.3301 44.3787 100.7416
# 76 vertices

vn 0.0000 -1.0000 -0.0000
vn 0.0000 1.0000 -0.0000
vn 1.0000 0.0000 -0.0000
vn -1.0000 0.0000 -0.0000
vn 0.0000 0.0000 -1.0000
vn 0.0000 0.0000 1.0000
vn 0.0000 -0.7071 0.7071
vn 0.0000 0.7071 0.7071
vn 0.7071 0.0000 0.7071
vn -0.7071 0.0000 0.7071
vn 0.0000 0.8165 -0.5774
vn 0.8165 0.0000 -0.5774
vn 0.0000 -0.8165 -0.5774
vn -0.8165 0.0000 -0.5774
vn 0.0000 -0.7071 -0.7071
vn 0.0000 0.7071 -0.7071
vn 0.7071 0.0000 -0.7071
vn -0.7071 0.0000 -0.7071
vn 1.0000 -0.0000 0.0000
vn 0.8660 0.5000 -0.0000
vn 0.5000 0.8660 -0.0000
vn -0.0000 1.0000 -0.0000
vn -0.5000 0.8660 -0.0000
vn -0.8660 0.5000 -0.0000
vn -1.0000 -0.0000 0.0000
vn 0.5000 -0.8660 -0.0000
vn -0.0000 -1.0000 -0.0000
vn 0.5181 -0.8553 -0.0000
vn -0.5000 -0.8660 -0.0000
vn -0.5181 -0.8553 -0.0000
vn 0.8660 -0.5000 -0.0000
vn 0.7071 -0.7071 -0.0000
vn 0.9165 -0.4000 -0.0000
vn -0.8660 -0.5000 -0.0000
vn -0.7071 -0.7071 -0.0000
vn -0.9165 -0.4000 0.0000
vn 0.0000 -0.8772 0.4802
vn 0.0000 -0.8772 -0.4802
vn 0.0000 -0.2588 -0.9659
vn 0.0000 -0.6028 -0.7979
vn -0.9165 -0.4000 -0.0000
vn -0.9659 -0.2588 -0.0000
vn -0.9659 -0.2588 0.0000
vn 0.9659 -0.2588 -0.0000
vn 0.9659 -0.2588 0.0000
vn 0.9165 -0.4000 0.0000
vn 0.0000 -0.6028 0.7979
vn 0.0000 -0.2588 0.9659
# 48 vertex normals

vt 0.0005 0.2878 0.0000
vt 0.0005 0.0121 0.0000
vt 0.0117 0.0121 0.0000
vt 0.0117 0.2878 0.0000
vt 0.5284 0.0121 0.0000
vt 0.5284 0.2878 0.0000
vt 0.5172 0.2878 0.0000
vt 0.5172 0.0121 0.0000
vt 0.5171 0.2990 0.0000
vt 0.0118 0.2990 0.0000
vt 0.0118 0.0008 0.0000
vt 0.5171 0.0008 0.0000
vt 0.8864 0.0005 0.0000
vt 0.8864 0.1270 0.0000
vt 0.5341 0.1270 0.0000
vt 0.5341 0.0005 0.0000
vt 0.9991 0.7287 0.0000
vt 0.9991 0.9993 0.0000
vt 0.5027 0.9993 0.0000
vt 0.5027 0.7287 0.0000
vt 0.5024 0.7285 0.0000
vt 0.5024 0.9995 0.0000
vt 0.5287 0.0124 0.0000
vt 0.5287 0.2875 0.0000
vt 0.5168 0.2994 0.0000
vt 0.0120 0.2994 0.0000
vt 0.0120 0.0005 0.0000
vt 0.5168 0.0005 0.0000
vt 0.0825 0.0828 0.0000
vt 0.0825 0.2171 0.0000
vt 0.4464 0.0828 0.0000
vt 0.4464 0.2171 0.0000
vt 0.0851 0.2144 0.0000
vt 0.0851 0.0854 0.0000
vt 0.0863 0.0867 0.0000
vt 0.0863 0.2132 0.0000
vt 0.4438 0.0854 0.0000
vt 0.4425 0.0867 0.0000
vt 0.4438 0.2144 0.0000
vt 0.4425 0.2132 0.0000
vt 0.2715 0.8596 0.0000
vt 0.2715 0.9949 0.0000
vt 0.0005 0.9949 0.0000
vt 0.0005 0.8596 0.0000
vt 0.8096 0.2672 0.0000
vt 0.5386 0.2672 0.0000
vt 0.5386 0.1319 0.0000
vt 0.8096 0.1319 0.0000
vt 0.0005 0.5745 0.0000
vt 0.0005 0.3035 0.0000
vt 0.4974 0.3035 0.0000
vt 0.4974 0.5745 0.0000
vt 0.0005 0.8550 0.0000
vt 0.0005 0.7198 0.0000
vt 0.4974 0.7198 0.0000
vt 0.4974 0.8550 0.0000
vt 0.0005 0.7146 0.0000
vt 0.0005 0.5793 0.0000
vt 0.4974 0.5793 0.0000
vt 0.4974 0.7146 0.0000
vt 0.9991 0.4484 0.0000
vt 0.9991 0.7189 0.0000
vt 0.5027 0.7189 0.0000
vt 0.5027 0.4484 0.0000
vt 0.5024 0.4481 0.0000
vt 0.5024 0.7192 0.0000
vt 0.5388 0.1316 0.0000
vt 0.8094 0.1316 0.0000
vt 0.0007 0.7194 0.0000
vt 0.4971 0.7194 0.0000
vt 0.4971 0.7149 0.0000
vt 0.0007 0.7149 0.0000
vt 0.2808 0.8643 0.0000
vt 0.2947 0.8643 0.0000
vt 0.2947 0.8666 0.0000
vt 0.2808 0.8666 0.0000
vt 0.2947 0.8690 0.0000
vt 0.2808 0.8690 0.0000
vt 0.2947 0.8713 0.0000
vt 0.2808 0.8713 0.0000
vt 0.2808 0.8736 0.0000
vt 0.2947 0.8736 0.0000
vt 0.2808 0.8760 0.0000
vt 0.2947 0.8760 0.0000
vt 0.2808 0.8783 0.0000
vt 0.2947 0.8783 0.0000
vt 0.2808 0.8877 0.0000
vt 0.2808 0.8853 0.0000
vt 0.2837 0.8853 0.0000
vt 0.2839 0.8877 0.0000
vt 0.2808 0.8830 0.0000
vt 0.2839 0.8830 0.0000
vt 0.2808 0.8620 0.0000
vt 0.2808 0.8596 0.0000
vt 0.2839 0.8596 0.0000
vt 0.2842 0.8614 0.0000
vt 0.2846 0.8620 0.0000
vt 0.2947 0.8806 0.0000
vt 0.2947 0.8830 0.0000
vt 0.2924 0.8830 0.0000
vt 0.2921 0.8812 0.0000
vt 0.2917 0.8806 0.0000
vt 0.2926 0.8853 0.0000
vt 0.2947 0.8853 0.0000
vt 0.2947 0.8877 0.0000
vt 0.2924 0.8877 0.0000
vt 0.2879 0.8999 0.0000
vt 0.2855 0.9001 0.0000
vt 0.2855 0.8913 0.0000
vt 0.2879 0.8914 0.0000
vt 0.2832 0.8999 0.0000
vt 0.2832 0.8914 0.0000
vt 0.8926 0.0011 0.0000
vt 0.8948 0.0005 0.0000
vt 0.8971 0.0011 0.0000
vt 0.8984 0.0025 0.0000
vt 0.8913 0.0025 0.0000
vt 0.3272 0.8609 0.0000
vt 0.3292 0.8597 0.0000
vt 0.3315 0.8596 0.0000
vt 0.3336 0.8607 0.0000
vt 0.3261 0.8629 0.0000
vt 0.3261 0.8652 0.0000
vt 0.3273 0.8672 0.0000
vt 0.3293 0.8684 0.0000
vt 0.3348 0.8628 0.0000
vt 0.3348 0.8651 0.0000
vt 0.3337 0.8671 0.0000
vt 0.3317 0.8683 0.0000
vt 0.3134 0.8596 0.0000
vt 0.3155 0.8607 0.0000
vt 0.3167 0.8628 0.0000
vt 0.3111 0.8597 0.0000
vt 0.3167 0.8651 0.0000
vt 0.3156 0.8671 0.0000
vt 0.3136 0.8683 0.0000
vt 0.3113 0.8684 0.0000
vt 0.3091 0.8609 0.0000
vt 0.3080 0.8629 0.0000
vt 0.3080 0.8652 0.0000
vt 0.3092 0.8672 0.0000
vt 0.2808 0.8806 0.0000
vt 0.2842 0.8812 0.0000
vt 0.2846 0.8806 0.0000
vt 0.2859 0.8793 0.0000
vt 0.2882 0.8787 0.0000
vt 0.2904 0.8793 0.0000
vt 0.2859 0.8633 0.0000
vt 0.2882 0.8639 0.0000
vt 0.2904 0.8633 0.0000
vt 0.2917 0.8620 0.0000
vt 0.2947 0.8620 0.0000
vt 0.2924 0.8596 0.0000
vt 0.2947 0.8596 0.0000
vt 0.2921 0.8614 0.0000
vt 0.2897 0.8918 0.0000
vt 0.2902 0.8921 0.0000
vt 0.2902 0.8992 0.0000
vt 0.2897 0.8996 0.0000
vt 0.9016 0.0011 0.0000
vt 0.9039 0.0005 0.0000
vt 0.9061 0.0011 0.0000
vt 0.9003 0.0025 0.0000
vt 0.9074 0.0025 0.0000
vt 0.2808 0.8992 0.0000
vt 0.2808 0.8921 0.0000
vt 0.2814 0.8918 0.0000
vt 0.2814 0.8996 0.0000
# 168 texture coords

g Placard
usemtl Material__47
s 1
f 1/1/1 2/2/1 3/3/1 
f 3/3/1 4/4/1 1/1/1 
f 5/5/2 6/6/2 7/7/2 
f 7/7/2 8/8/2 5/5/2 
s 2
f 6/9/3 1/10/3 4/4/3 
f 4/4/3 7/7/3 6/9/3 
f 2/11/4 5/12/4 8/8/4 
f 8/8/4 3/3/4 2/11/4 
s 1
f 9/13/5 10/14/5 11/15/5 
f 11/15/5 12/16/5 9/13/5 
f 13/17/6 14/18/6 15/19/6 
f 15/19/6 16/20/6 13/17/6 
s 4
f 1/21/7 16/20/7 15/19/7 
f 15/19/7 2/22/7 1/21/7 
f 5/5/8 14/23/8 13/24/8 
f 13/24/8 6/6/8 5/5/8 
s 8
f 6/9/9 13/25/9 16/26/9 
f 16/26/9 1/10/9 6/9/9 
f 2/11/10 15/27/10 14/28/10 
f 14/28/10 5/12/10 2/11/10 
s 4
f 4/4/5 3/3/5 17/29/5 
f 17/29/5 18/30/5 4/4/5 
f 3/3/5 8/8/5 19/31/5 
f 19/31/5 17/29/5 3/3/5 
f 8/8/5 7/7/5 20/32/5 
f 20/32/5 19/31/5 8/8/5 
f 7/7/5 4/4/5 18/30/5 
f 18/30/5 20/32/5 7/7/5 
s 2
f 21/33/2 22/34/2 12/35/2 
f 12/35/2 11/36/2 21/33/2 
s 4
f 22/34/3 23/37/3 9/38/3 
f 9/38/3 12/35/3 22/34/3 
s 2
f 23/37/1 24/39/1 10/40/1 
f 10/40/1 9/38/1 23/37/1 
s 4
f 24/39/4 21/33/4 11/36/4 
f 11/36/4 10/40/4 24/39/4 
s 1
f 21/33/11 18/30/11 17/29/11 
f 17/29/11 22/34/11 21/33/11 
s 8
f 22/34/12 17/29/12 19/31/12 
f 19/31/12 23/37/12 22/34/12 
s 1
f 23/37/13 19/31/13 20/32/13 
f 20/32/13 24/39/13 23/37/13 
s 8
f 24/39/14 20/32/14 18/30/14 
f 18/30/14 21/33/14 24/39/14 
s 1
f 25/41/1 26/42/1 27/43/1 
f 27/43/1 28/44/1 25/41/1 
f 29/45/2 30/46/2 31/47/2 
f 31/47/2 32/48/2 29/45/2 
s 2
f 25/49/6 28/50/6 30/51/6 
f 30/51/6 29/52/6 25/49/6 
s 4
f 28/53/3 27/54/3 31/55/3 
f 31/55/3 30/56/3 28/53/3 
f 26/57/4 25/58/4 29/59/4 
f 29/59/4 32/60/4 26/57/4 
s 1
f 14/61/5 13/62/5 16/63/5 
f 16/63/5 15/64/5 14/61/5 
s 2
f 26/65/15 15/64/15 16/63/15 
f 16/63/15 27/66/15 26/65/15 
f 31/47/16 13/67/16 14/68/16 
f 14/68/16 32/48/16 31/47/16 
s 8
f 27/54/17 16/69/17 13/70/17 
f 13/70/17 31/55/17 27/54/17 
f 32/60/18 14/71/18 15/72/18 
f 15/72/18 26/57/18 32/60/18 
f 33/73/3 34/74/19 35/75/20 
f 35/75/20 36/76/20 33/73/3 
f 36/76/20 35/75/20 37/77/21 
f 37/77/21 38/78/21 36/76/20 
f 38/78/21 37/77/21 39/79/22 
f 39/79/22 40/80/2 38/78/21 
f 41/81/23 40/80/2 39/79/22 
f 39/79/22 42/82/23 41/81/23 
f 43/83/24 41/81/23 42/82/23 
f 42/82/23 44/84/24 43/83/24 
f 45/85/4 43/83/24 44/84/24 
f 44/84/24 46/86/25 45/85/4 
f 47/87/26 48/88/1 49/89/27 
f 49/89/27 50/90/28 47/87/26 
f 49/89/27 48/88/1 51/91/29 
f 51/91/29 52/92/30 49/89/27 
f 53/93/31 47/94/26 50/95/28 
f 53/93/31 50/95/28 54/96/32 
f 53/93/31 54/96/32 55/97/33 
f 56/98/34 57/99/29 58/100/30 
f 56/98/34 58/100/30 59/101/35 
f 56/98/34 59/101/35 60/102/36 
f 61/103/27 62/104/1 63/105/26 
f 63/105/26 64/106/28 61/103/27 
f 57/99/29 62/104/1 61/103/27 
f 61/103/27 58/100/30 57/99/29 
s 1
f 65/107/37 66/108/1 67/109/1 
f 67/109/1 68/110/37 65/107/37 
f 67/109/1 66/108/1 69/111/38 
f 69/111/38 70/112/38 67/109/1 
f 50/113/39 49/114/39 52/115/39 
f 50/113/39 52/115/39 71/116/40 
f 50/113/39 71/116/40 54/117/40 
f 72/118/5 63/119/5 62/120/5 
f 72/118/5 62/120/5 57/121/5 
f 34/122/5 72/118/5 57/121/5 
f 35/123/5 34/122/5 57/121/5 
f 37/124/5 35/123/5 57/121/5 
f 39/125/5 37/124/5 57/121/5 
f 39/125/5 57/121/5 56/126/5 
f 39/125/5 56/126/5 46/127/5 
f 39/125/5 46/127/5 44/128/5 
f 39/125/5 44/128/5 42/129/5 
f 48/130/6 47/131/6 53/132/6 
f 51/133/6 48/130/6 53/132/6 
f 51/133/6 53/132/6 33/134/6 
f 51/133/6 33/134/6 36/135/6 
f 51/133/6 36/135/6 38/136/6 
f 51/133/6 38/136/6 40/137/6 
f 73/138/6 51/133/6 40/137/6 
f 45/139/6 73/138/6 40/137/6 
f 43/140/6 45/139/6 40/137/6 
f 43/140/6 40/137/6 41/141/6 
s 8
f 52/92/30 51/91/29 73/142/34 
f 71/143/35 52/92/30 73/142/34 
f 71/143/35 73/142/34 74/144/41 
f 74/144/41 73/142/34 45/85/4 
f 70/145/42 74/144/41 45/85/4 
f 67/146/43 70/145/42 45/85/4 
f 67/146/43 45/85/4 46/86/25 
f 68/147/43 67/146/43 46/86/25 
f 60/102/36 68/147/43 46/86/25 
f 60/102/36 46/86/25 56/98/34 
f 33/73/3 53/93/31 55/97/33 
f 33/73/3 55/97/33 69/148/44 
f 33/73/3 69/148/44 66/149/45 
f 34/74/19 33/73/3 66/149/45 
f 34/74/19 66/149/45 65/150/45 
f 34/74/19 65/150/45 75/151/46 
f 34/74/19 75/151/46 72/152/31 
f 64/153/28 63/154/26 72/152/31 
f 76/155/32 64/153/28 72/152/31 
f 76/155/32 72/152/31 75/151/46 
s 1
f 60/156/7 59/157/47 76/158/47 
f 60/156/7 76/158/47 75/159/7 
f 68/110/37 60/156/7 75/159/7 
f 68/110/37 75/159/7 65/107/37 
f 58/160/48 61/161/48 64/162/48 
f 59/163/47 58/160/48 64/162/48 
f 59/163/47 64/162/48 76/164/47 
f 54/165/40 71/166/40 74/167/15 
f 55/168/15 54/165/40 74/167/15 
f 55/168/15 74/167/15 70/112/38 
f 55/168/15 70/112/38 69/111/38 
# 148 faces

