# 3ds Max Wavefront OBJ Exporter v0.97b - (c)2007 guruware
# File Created: 04.04.2018 03:36:00

mtllib Floor.mtl

#
# object Floor
#

v  -135.2206 0.0000 130.0780
v  98.5664 0.0000 130.0784
v  98.5665 0.0000 61.3117
v  98.5669 0.0000 -92.2815
v  -135.2213 0.0000 -92.2808
# 5 vertices

vn 0.0000 1.0000 -0.0000
# 1 vertex normals

vt 0.8454 0.0005 0.0000
vt 0.8454 0.9995 0.0000
vt 0.5841 0.9995 0.0000
vt 0.0005 0.9995 0.0000
vt 0.0005 0.0005 0.0000
# 5 texture coords

g Floor
usemtl wire_000000000
s 2
f 1/1/1 2/2/1 3/3/1 
f 1/1/1 3/3/1 4/4/1 
f 1/1/1 4/4/1 5/5/1 
# 3 faces

